<svg xmlns="http://www.w3.org/2000/svg" xmlns:xlink="http://www.w3.org/1999/xlink" id="图层_1" x="0" y="0" version="1.1" viewBox="0 0 200 200" xml:space="preserve" style="enable-background:new 0 0 200 200"><style type="text/css">.st0{fill:url(#A_1_)}.st1{fill:url(#Shape_4_)}.st2{fill:url(#Shape_5_)}.st3{fill:url(#Shape_6_)}</style><title>Group 28 Copy 5</title><desc>Created with Sketch.</desc><g id="Group-4"><linearGradient id="A_1_" x1="-821.557" x2="-822.16" y1="-815.25" y2="-812.84" gradientTransform="matrix(53.4167 0 0 51.6667 44010.9219 42143.9648)" gradientUnits="userSpaceOnUse"><stop offset="0" style="stop-color:#fa8e7d"/><stop offset=".513" style="stop-color:#f74a5c"/><stop offset="1" style="stop-color:#f51d2c"/></linearGradient><path id="A" d="M122.4,121.6l-4.4-10H80.7l-4.4,10.3c-1.7,4-3.2,6.7-4.4,8.1c-1.2,1.3-3.2,2.1-6,2.1 c-2.4,0-4.4-0.8-6.3-2.3s-2.7-3.2-2.7-5.1c0-1.1,0.3-2.3,0.7-3.3s1.1-2.8,2.1-4.8l23.5-51.9c0.7-1.5,1.5-3.3,2.4-5.3 c0.9-2.1,2-3.9,3.1-5.2c1.1-1.3,2.5-2.5,4.3-3.3c1.7-0.8,3.9-1.3,6.4-1.3s4.8,0.4,6.5,1.3c1.7,0.8,3.2,2,4.3,3.3 c1.1,1.3,2,2.8,2.7,4.4s1.6,3.6,2.8,6.1l24,51.6c1.9,3.9,2.8,6.8,2.8,8.5c0,1.9-0.9,3.6-2.7,5.1c-1.7,1.6-3.9,2.3-6.4,2.3 c-1.5,0-2.7-0.3-3.7-0.7c-1.1-0.4-1.9-1.1-2.7-1.9c-0.7-0.8-1.5-2-2.3-3.6C123.6,124.3,122.9,122.8,122.4,121.6z M85.5,99.3H113 L99.1,66.4L85.5,99.3z" class="st0"/><linearGradient id="Shape_4_" x1="-819.083" x2="-819.214" y1="-815.393" y2="-812.785" gradientTransform="matrix(46.4786 0 0 58.25 38229.8711 47483.9492)" gradientUnits="userSpaceOnUse"><stop offset="0" style="stop-color:#fa816e"/><stop offset=".415" style="stop-color:#f74a5c"/><stop offset="1" style="stop-color:#f51d2c"/></linearGradient><path id="Shape_1_" d="M195.3,50.1c0.8-9.8-4.9-19-14.2-22.4l-45.1-16c-1.3-0.7-2.8-0.9-4.4-0.9 c-5.9,0-10.7,4.8-10.7,10.7c0,4.7,3.1,8.7,7.3,10.1l0,0l45.7,16.3l-4.5,42.3c-0.3,1.1-0.5,2.1-0.5,3.2c0,5.9,4.8,10.7,10.7,10.7 c5.6,0,10.1-4.3,10.7-9.6" class="st1"/><linearGradient id="Shape_5_" x1="-831.338" x2="-830.497" y1="-813.93" y2="-814.264" gradientTransform="matrix(114.0794 0 0 125 94873.8984 101866.3594)" gradientUnits="userSpaceOnUse"><stop offset="0" style="stop-color:#4285eb"/><stop offset="1" style="stop-color:#2ec7ff"/></linearGradient><path id="Shape_3_" d="M185.9,132.3c0.3-0.9,0.4-2,0.4-2.9c0-5.9-4.8-10.7-10.7-10.7s-10.7,4.8-10.7,10.7 c0,0.5,0,1.2,0.1,1.7l-1.5,14l-64,33.5l-64-33.5L25.1,47.8l74.4-26.4h0.1v-0.1c5.2-0.7,9.2-5.2,9.2-10.5c0-5.9-4.8-10.7-10.7-10.7 c-1.7,0-3.3,0.4-4.7,1.1l0,0L18,27.8C8.7,31.1,2.9,40.3,4,50.2l10.4,97.3c0.8,7.1,4.9,13.3,11.3,16.7l64,33.5 c6.1,3.2,13.6,3.2,19.7,0l64-33.5c6.3-3.3,10.5-9.6,11.3-16.7" class="st2"/><linearGradient id="Shape_6_" x1="-831.401" x2="-830.436" y1="-814.731" y2="-813.338" gradientTransform="matrix(114.0794 0 0 111.4652 94873.8984 90851.4531)" gradientUnits="userSpaceOnUse"><stop offset="0" style="stop-color:#29cdff"/><stop offset=".379" style="stop-color:#148eff"/><stop offset="1" style="stop-color:#0a60ff"/></linearGradient><path id="Shape_2_" d="M185.9,132.3c0.3-0.9,0.4-2,0.4-2.9c0-5.9-4.8-10.7-10.7-10.7s-10.7,4.8-10.7,10.7 c0,0.5,0,1.2,0.1,1.7l-1.5,14l-64,33.5l-64-33.5L25.1,47.8c-1.1-10.9,2.3-19.6,10-26.1l-17,6.1C8.8,31.1,3,40.3,4.1,50.2l10.4,97.3 c0.8,7.1,4.9,13.3,11.3,16.7l64,33.5c6.1,3.2,13.6,3.2,19.7,0l64-33.5c6.3-3.3,10.5-9.6,11.3-16.7" class="st3"/></g></svg>